<mxfile host="app.diagrams.net" modified="2023-08-30T07:26:21.795Z" agent="Mozilla/5.0 (Windows NT 10.0; Win64; x64) AppleWebKit/537.36 (KHTML, like Gecko) Chrome/116.0.0.0 Safari/537.36 Edg/116.0.1938.62" etag="iWo65Nfr_F8533ypShep" version="21.7.0" type="github">
  <diagram name="第 1 页" id="MQZdJ8MCjpJ_NA7FnJzc">
    <mxGraphModel dx="1401" dy="913" grid="1" gridSize="10" guides="1" tooltips="1" connect="1" arrows="1" fold="1" page="1" pageScale="1" pageWidth="827" pageHeight="1169" math="0" shadow="0">
      <root>
        <mxCell id="0" />
        <mxCell id="1" parent="0" />
        <mxCell id="Ey8GkH0KIX5KJ47GYGGW-20" value="数据库架构数据处理流程" style="rounded=0;whiteSpace=wrap;html=1;fontSize=15;strokeColor=none;" vertex="1" parent="1">
          <mxGeometry x="330.75" y="380" width="172.5" height="60" as="geometry" />
        </mxCell>
        <mxCell id="Ey8GkH0KIX5KJ47GYGGW-19" value="传统架构数据处理流程" style="rounded=0;whiteSpace=wrap;html=1;fontSize=15;strokeColor=none;" vertex="1" parent="1">
          <mxGeometry x="339" y="260" width="156" height="60" as="geometry" />
        </mxCell>
        <mxCell id="Ey8GkH0KIX5KJ47GYGGW-1" value="应用处理" style="rounded=1;whiteSpace=wrap;html=1;fontSize=15;" vertex="1" parent="1">
          <mxGeometry x="60" y="200" width="120" height="60" as="geometry" />
        </mxCell>
        <mxCell id="Ey8GkH0KIX5KJ47GYGGW-2" value="保存数据" style="rounded=1;whiteSpace=wrap;html=1;fontSize=15;" vertex="1" parent="1">
          <mxGeometry x="240" y="200" width="120" height="60" as="geometry" />
        </mxCell>
        <mxCell id="Ey8GkH0KIX5KJ47GYGGW-3" value="通知关联模块" style="rounded=1;whiteSpace=wrap;html=1;fontSize=15;" vertex="1" parent="1">
          <mxGeometry x="420" y="200" width="120" height="60" as="geometry" />
        </mxCell>
        <mxCell id="Ey8GkH0KIX5KJ47GYGGW-4" value="下发驱动" style="rounded=1;whiteSpace=wrap;html=1;fontSize=15;" vertex="1" parent="1">
          <mxGeometry x="600" y="200" width="120" height="60" as="geometry" />
        </mxCell>
        <mxCell id="Ey8GkH0KIX5KJ47GYGGW-9" value="" style="shape=flexArrow;endArrow=classic;html=1;rounded=0;exitX=1;exitY=0.5;exitDx=0;exitDy=0;fontSize=15;" edge="1" parent="1" source="Ey8GkH0KIX5KJ47GYGGW-1" target="Ey8GkH0KIX5KJ47GYGGW-2">
          <mxGeometry width="50" height="50" relative="1" as="geometry">
            <mxPoint x="390" y="490" as="sourcePoint" />
            <mxPoint x="440" y="440" as="targetPoint" />
          </mxGeometry>
        </mxCell>
        <mxCell id="Ey8GkH0KIX5KJ47GYGGW-10" value="" style="shape=flexArrow;endArrow=classic;html=1;rounded=0;exitX=1;exitY=0.5;exitDx=0;exitDy=0;fontSize=15;" edge="1" parent="1">
          <mxGeometry width="50" height="50" relative="1" as="geometry">
            <mxPoint x="360" y="229.5" as="sourcePoint" />
            <mxPoint x="420" y="229.5" as="targetPoint" />
          </mxGeometry>
        </mxCell>
        <mxCell id="Ey8GkH0KIX5KJ47GYGGW-11" value="" style="shape=flexArrow;endArrow=classic;html=1;rounded=0;exitX=1;exitY=0.5;exitDx=0;exitDy=0;fontSize=15;" edge="1" parent="1">
          <mxGeometry width="50" height="50" relative="1" as="geometry">
            <mxPoint x="540" y="229.5" as="sourcePoint" />
            <mxPoint x="600" y="229.5" as="targetPoint" />
          </mxGeometry>
        </mxCell>
        <mxCell id="Ey8GkH0KIX5KJ47GYGGW-12" value="应用处理" style="rounded=1;whiteSpace=wrap;html=1;fontSize=15;" vertex="1" parent="1">
          <mxGeometry x="60" y="320" width="120" height="60" as="geometry" />
        </mxCell>
        <mxCell id="Ey8GkH0KIX5KJ47GYGGW-13" value="存数据库" style="rounded=1;whiteSpace=wrap;html=1;fontSize=15;" vertex="1" parent="1">
          <mxGeometry x="240" y="320" width="120" height="60" as="geometry" />
        </mxCell>
        <mxCell id="Ey8GkH0KIX5KJ47GYGGW-14" value="关联模块订阅数据库" style="rounded=1;whiteSpace=wrap;html=1;fontSize=15;" vertex="1" parent="1">
          <mxGeometry x="420" y="320" width="120" height="60" as="geometry" />
        </mxCell>
        <mxCell id="Ey8GkH0KIX5KJ47GYGGW-15" value="下发驱动" style="rounded=1;whiteSpace=wrap;html=1;fontSize=15;" vertex="1" parent="1">
          <mxGeometry x="600" y="320" width="120" height="60" as="geometry" />
        </mxCell>
        <mxCell id="Ey8GkH0KIX5KJ47GYGGW-16" value="" style="shape=flexArrow;endArrow=classic;html=1;rounded=0;exitX=1;exitY=0.5;exitDx=0;exitDy=0;fontSize=15;" edge="1" parent="1" source="Ey8GkH0KIX5KJ47GYGGW-12" target="Ey8GkH0KIX5KJ47GYGGW-13">
          <mxGeometry width="50" height="50" relative="1" as="geometry">
            <mxPoint x="390" y="610" as="sourcePoint" />
            <mxPoint x="440" y="560" as="targetPoint" />
          </mxGeometry>
        </mxCell>
        <mxCell id="Ey8GkH0KIX5KJ47GYGGW-17" value="" style="shape=flexArrow;endArrow=classic;html=1;rounded=0;exitX=1;exitY=0.5;exitDx=0;exitDy=0;fontSize=15;" edge="1" parent="1">
          <mxGeometry width="50" height="50" relative="1" as="geometry">
            <mxPoint x="360" y="349.5" as="sourcePoint" />
            <mxPoint x="420" y="349.5" as="targetPoint" />
          </mxGeometry>
        </mxCell>
        <mxCell id="Ey8GkH0KIX5KJ47GYGGW-18" value="" style="shape=flexArrow;endArrow=classic;html=1;rounded=0;exitX=1;exitY=0.5;exitDx=0;exitDy=0;fontSize=15;" edge="1" parent="1">
          <mxGeometry width="50" height="50" relative="1" as="geometry">
            <mxPoint x="540" y="349.5" as="sourcePoint" />
            <mxPoint x="600" y="349.5" as="targetPoint" />
          </mxGeometry>
        </mxCell>
      </root>
    </mxGraphModel>
  </diagram>
</mxfile>
